<svg id="Capa_1" xmlns="http://www.w3.org/2000/svg" viewBox="0 0 52 52"><style>.st0{fill:url(#SVGID_1_)}</style><linearGradient id="SVGID_1_" gradientUnits="userSpaceOnUse" x1="-475.173" y1="529.591" x2="-475.173" y2="528.756" gradientTransform="matrix(52 0 0 -52 24735 27543)"><stop offset="0" stop-color="#fee591"/><stop offset="1" stop-color="#f9b233"/></linearGradient><path class="st0" d="M26 4.3C14 4.3 4.3 14 4.3 26S14 47.7 26 47.7 47.7 38 47.7 26 38 4.3 26 4.3zm12.1 14.5l-13.4 15c-.3.4-.8.6-1.2.6-.4 0-.7-.1-1-.4l-8.3-6.7c-.7-.6-.8-1.6-.3-2.3.6-.7 1.6-.8 2.3-.3l7.1 5.7 12.3-13.8c.6-.7 1.7-.8 2.4-.1.7.5.7 1.6.1 2.3z"/></svg>